<svg version="1.1" viewBox="0.0 0.0 1024.0 1024.0" fill="none" stroke="none" stroke-linecap="square" stroke-miterlimit="10" xmlns:xlink="http://www.w3.org/1999/xlink" xmlns="http://www.w3.org/2000/svg"><clipPath id="p.0"><path d="m0 0l1024.0 0l0 1024.0l-1024.0 0l0 -1024.0z" clip-rule="nonzero"/></clipPath><g clip-path="url(#p.0)"><path fill="#000000" fill-opacity="0.0" d="m0 0l1024.0 0l0 1024.0l-1024.0 0z" fill-rule="evenodd"/><path fill="#0c343d" d="m0 169.37796l0 0c0 -94.25661 76.41007 -170.66667 170.66667 -170.66667l682.6666 0l0 0c45.26361 0 88.67334 17.9809 120.679565 49.98711c32.006226 32.00621 49.98712 75.41595 49.98712 120.679565l0 682.6666c0 94.25659 -76.410095 170.66669 -170.66669 170.66669l-682.6666 0c-94.2566 0 -170.66667 -76.410095 -170.66667 -170.66669z" fill-rule="evenodd"/><path fill="#00ffff" d="m657.69946 424.33627q0 28.890625 -11.328125 51.15625q-11.328125 22.265625 -31.375 36.859406q-19.796875 14.578125 -43.5 21.359375q-23.6875 6.765625 -50.25 6.765625l-41.40622 0l0 111.96875q0 9.125 2.984375 16.03125q3.0 6.890625 12.375 10.53125q4.6875 1.828125 16.53125 3.390625q11.8593445 1.5625 21.74997 1.828125l0 18.484375l-158.59372 0l0 -18.484375q6.25 -0.53125 18.09375 -1.828125q11.859375 -1.296875 16.546875 -3.390625q7.8125 -3.375 11.328125 -9.890625q3.515625 -6.515625 3.515625 -16.671875l0 -266.65628q0 -9.109375 -2.609375 -16.40625q-2.59375 -7.296875 -12.234375 -10.9375q-9.890625 -3.390625 -19.65625 -4.8125q-9.765625 -1.4375 -16.796875 -1.953125l0 -18.5l168.74997 0q51.5625 0 83.71875 24.875q32.15625 24.875 32.15625 66.28125zm-79.15625 63.015625q8.84375 -12.5 11.703125 -25.90625q2.875 -13.421875 2.875 -24.09375q0 -14.84375 -3.515625 -30.203125q-3.515625 -15.375 -12.109375 -26.828125q-9.109375 -12.234375 -23.953125 -19.0q-14.84375 -6.78125 -36.984375 -6.78125l-36.71872 0l0 163.28128l26.5625 0q28.12497 0 45.703094 -8.7187805q17.578125 -8.734375 26.4375 -21.75z" fill-rule="nonzero"/></g></svg>