<svg version="1.1" viewBox="0.0 0.0 1024.0 1024.0" fill="none" stroke="none" stroke-linecap="square" stroke-miterlimit="10" xmlns:xlink="http://www.w3.org/1999/xlink" xmlns="http://www.w3.org/2000/svg"><clipPath id="p.0"><path d="m0 0l1024.0 0l0 1024.0l-1024.0 0l0 -1024.0z" clip-rule="nonzero"/></clipPath><g clip-path="url(#p.0)"><path fill="#000000" fill-opacity="0.0" d="m0 0l1024.0 0l0 1024.0l-1024.0 0z" fill-rule="evenodd"/><path fill="#0c343d" d="m0 169.37796l0 0c0 -94.25661 76.41007 -170.66667 170.66667 -170.66667l682.6666 0l0 0c45.26361 0 88.67334 17.9809 120.679565 49.98711c32.006226 32.00621 49.98712 75.41595 49.98712 120.679565l0 682.6666c0 94.25659 -76.410095 170.66669 -170.66669 170.66669l-682.6666 0c-94.2566 0 -170.66667 -76.410095 -170.66667 -170.66669z" fill-rule="evenodd"/><path fill="#ff9900" d="m617.86084 533.18005q11.71875 13.015625 17.3125 28.515625q5.59375 15.5 5.59375 36.0625q0 48.96875 -36.203125 80.734375q-36.1875 31.765625 -89.828125 31.765625q-24.734375 0 -49.484375 -7.671875q-24.734375 -7.6875 -42.703125 -18.625l-11.203125 19.015625l-20.828125 0l-3.640625 -126.5625l21.09375 0q6.5 23.4375 15.21875 42.3125q8.734375 18.875 23.0625 35.28125q13.53125 15.375 31.625 24.484375q18.109375 9.109375 42.0625 9.109375q17.96875 0 31.375 -4.6875q13.421875 -4.6875 21.75 -13.28125q8.34375 -8.59375 12.375 -20.171875q4.03125 -11.59375 4.03125 -26.703125q0 -22.125 -12.5 -41.265625q-12.5 -19.140625 -37.234375 -29.046875q-16.921875 -6.765625 -38.796875 -14.96875q-21.875 -8.203125 -37.765625 -15.5q-31.25 -14.0625305 -48.578125 -36.84378q-17.3125 -22.78125 -17.3125 -59.5q0 -21.09375 8.59375 -39.3125q8.59375 -18.234375 24.484375 -32.5625q15.109375 -13.546875 35.671875 -21.21875q20.578125 -7.6875 42.96875 -7.6875q25.53125 0 45.703125 7.8125q20.1875 7.8125 36.859375 18.234375l10.671875 -17.71875l20.828125 0l2.09375 122.65625l-21.09375 0q-5.734375 -21.09375 -12.90625 -40.359375q-7.15625 -19.265625 -18.609375 -34.890625q-11.203125 -15.109375 -27.34375 -24.09375q-16.140625 -8.984375 -39.578125 -8.984375q-24.75 0 -42.203125 15.890625q-17.4375 15.875 -17.4375 38.796875q0 23.953125 11.1875 39.71875q11.203125 15.75 32.5625 25.90625q19.015625 9.109375 37.375 15.75q18.359375 6.640625 35.546875 14.1875q15.625 6.78125 30.078125 15.3750305q14.453125 8.59375 25.125 20.046875z" fill-rule="nonzero"/></g></svg>